<svg width="1920" height="1985" viewBox="0 0 1920 1985" fill="none" xmlns="http://www.w3.org/2000/svg">
<g clip-path="url(#clip0_114104_293)">
<rect width="1920" height="1985" fill="white"/>
<g clip-path="url(#clip1_114104_293)">
<path d="M1187.02 1073.18C1146.64 1224.72 1193.47 1416.13 967.054 1437.89C826.897 1451.35 732.005 1253.04 774.508 1102.19C833.851 891.673 1176.53 791.303 1312.82 832.868C1449.14 874.481 1227.42 921.666 1187.02 1073.18Z" fill="#FFF200"/>
<path d="M1767.67 1869.95C1508.79 2078.12 1063.05 2038.65 865.072 1789.46C806.981 1716.37 853.551 1680.08 914.399 1659.65C995.028 1632.64 1112.71 1636.44 1220.31 1535.34C1409.24 1357.9 1447.84 932.581 1708.75 1114.81C1972.71 1299.14 2013.46 1672.36 1767.67 1869.95Z" fill="#FFF200"/>
<path d="M188.727 860.195C45.3426 806.209 -52.1628 715.761 -109.737 868.673C-167.311 1021.59 -98.6445 1191.71 45.6261 1243.27C246.979 1315.25 526.563 1064.18 584.138 911.269C641.712 758.357 332.111 914.182 188.727 860.195Z" fill="#FFF200"/>
<path d="M1560.11 773.083C1555.71 695.433 1503.86 615.134 1607.6 563.881C1671.82 532.159 1747.48 606.921 1750.77 684.637C1755.35 793.1 1608.81 901.959 1537.88 907.449C1466.93 912.921 1564.51 850.724 1560.11 773.083Z" fill="#FFF200"/>
<path d="M173.609 1900.06C39.3695 1827.13 -148.34 1830.71 -126.691 1604.46C-113.28 1464.41 89.7995 1415.35 223 1490.2C408.887 1594.68 439.189 1951.97 375.03 2076.1C310.822 2200.25 307.823 1972.98 173.609 1900.06Z" fill="#FFF200"/>
<path d="M1161.13 163.635C1161.13 163.635 1272.74 440.632 1097.48 660.109C915.152 888.434 512.812 780.59 347.959 409.316C183.107 38.0419 232.888 -178.374 326.447 -200.273C438.007 -226.381 601.918 157.107 730.84 130.852C832.292 110.167 1045.35 -151.766 1161.13 163.635Z" fill="#FFF200"/>
<path d="M640.109 1492.81C706.149 1539.05 825.762 1510.07 775.534 1581.8C725.305 1653.53 606.375 1699.3 541.14 1651.92C450.084 1585.82 399.065 1385.23 449.293 1313.5C499.522 1241.77 574.068 1446.57 640.109 1492.81Z" fill="#FFF200"/>
<path d="M1565.38 420.881C1562.38 417.921 1444.73 260.176 1563.48 106.883C1678.72 -41.856 1853.65 27.8273 1893.78 143.951C1978.42 388.875 1948.29 606.229 1948.29 606.229C1948.29 606.229 1886.17 379.852 1782.84 360.899C1679.52 341.945 1641.6 495.649 1565.38 420.881Z" fill="#FFF200"/>
</g>
</g>
<defs>
<clipPath id="clip0_114104_293">
<rect width="1920" height="1985" fill="white"/>
</clipPath>
<clipPath id="clip1_114104_293">
<rect width="1920" height="1985" fill="white" transform="translate(0 -15)"/>
</clipPath>
</defs>
</svg>
